<svg xmlns="http://www.w3.org/2000/svg" viewBox="0 0 100 100" width="100" height="100">
  <!-- Wing shape -->
  <path d="M50 20 C30 25, 15 35, 10 50 C15 45, 25 40, 35 38 L50 35 L65 38 C75 40, 85 45, 90 50 C85 35, 70 25, 50 20" 
        fill="#0066cc" 
        opacity="0.9"/>
  
  <!-- Foil/Board shape -->
  <rect x="45" y="45" width="10" height="30" rx="2" fill="#333" opacity="0.8"/>
  <ellipse cx="50" cy="75" rx="20" ry="4" fill="#333" opacity="0.6"/>
  
  <!-- Wave lines -->
  <path d="M10 80 Q20 75, 30 80 T50 80 T70 80 T90 80" 
        stroke="#00a878" 
        stroke-width="2" 
        fill="none" 
        opacity="0.7"/>
  <path d="M15 85 Q25 82, 35 85 T55 85 T75 85 T95 85" 
        stroke="#00a878" 
        stroke-width="2" 
        fill="none" 
        opacity="0.5"/>
  <path d="M5 90 Q15 87, 25 90 T45 90 T65 90 T85 90" 
        stroke="#00a878" 
        stroke-width="2" 
        fill="none" 
        opacity="0.3"/>
</svg>