<svg xmlns="http://www.w3.org/2000/svg" viewBox="0 0 24 24" width="24" height="24">
  <path d="M12 2C10.34 2 9 3.34 9 5s1.34 3 3 3 3-1.34 3-3-1.34-3-3-3zm0 4c-.55 0-1-.45-1-1s.45-1 1-1 1 .45 1 1-.45 1-1 1z" fill="currentColor"/>
  <path d="M3 12c0-.55.45-1 1-1h4c.55 0 1 .45 1 1s-.45 1-1 1H4c-.55 0-1-.45-1-1zm12 0c0-.55.45-1 1-1h4c.55 0 1 .45 1 1s-.45 1-1 1h-4c-.55 0-1-.45-1-1z" fill="currentColor"/>
  <path d="M4.22 4.22c.39-.39 1.02-.39 1.41 0l2.83 2.83c.39.39.39 1.02 0 1.41s-1.02.39-1.41 0L4.22 5.63c-.39-.39-.39-1.02 0-1.41zm11.32 0c-.39-.39-1.02-.39-1.41 0L11.3 7.05c-.39.39-.39 1.02 0 1.41s1.02.39 1.41 0l2.83-2.83c.39-.39.39-1.02 0-1.41z" fill="currentColor" opacity="0.6"/>
  <path d="M7 14c-.55 0-1 .45-1 1v4c0 .55.45 1 1 1s1-.45 1-1v-4c0-.55-.45-1-1-1zm10 0c-.55 0-1 .45-1 1v4c0 .55.45 1 1 1s1-.45 1-1v-4c0-.55-.45-1-1-1zm-5 2c-.55 0-1 .45-1 1v3c0 .55.45 1 1 1s1-.45 1-1v-3c0-.55-.45-1-1-1z" fill="currentColor" opacity="0.8"/>
</svg>